<?xml version="1.0" encoding="UTF-8" standalone="no"?>
<!DOCTYPE svg PUBLIC "-//W3C//DTD SVG 1.1//EN"
 "http://www.w3.org/Graphics/SVG/1.1/DTD/svg11.dtd">
<!-- Generated by graphviz version 2.26.3 (20100126.1600)
 -->
<!-- Title: G Pages: 1 -->
<svg width="708pt" height="1213pt"
 viewBox="0.00 0.00 708.00 1213.00" xmlns="http://www.w3.org/2000/svg" xmlns:xlink="http://www.w3.org/1999/xlink">
<g id="graph1" class="graph" transform="scale(1 1) rotate(0) translate(4 1209)">
<title>G</title>
<polygon fill="white" stroke="white" points="-4,5 -4,-1209 705,-1209 705,5 -4,5"/>
<g id="graph2" class="cluster"><title>cluster_default</title>
<polyline fill="none" stroke="none" points="190,-44 512,-44 "/>
<path fill="none" stroke="none" d="M512,-44C518,-44 524,-50 524,-56"/>
<polyline fill="none" stroke="none" points="524,-56 524,-1002 "/>
<path fill="none" stroke="none" d="M524,-1002C524,-1008 518,-1014 512,-1014"/>
<polyline fill="none" stroke="none" points="512,-1014 190,-1014 "/>
<path fill="none" stroke="none" d="M190,-1014C184,-1014 178,-1008 178,-1002"/>
<polyline fill="none" stroke="none" points="178,-1002 178,-56 "/>
<path fill="none" stroke="none" d="M178,-56C178,-50 184,-44 190,-44"/>
</g>
<g id="graph3" class="cluster"><title>cluster_miniMVC</title>
<polyline fill="none" stroke="gray" points="604,-854 680,-854 "/>
<path fill="none" stroke="gray" d="M680,-854C686,-854 692,-860 692,-866"/>
<polyline fill="none" stroke="gray" points="692,-866 692,-1185 "/>
<path fill="none" stroke="gray" d="M692,-1185C692,-1191 686,-1197 680,-1197"/>
<polyline fill="none" stroke="gray" points="680,-1197 604,-1197 "/>
<path fill="none" stroke="gray" d="M604,-1197C598,-1197 592,-1191 592,-1185"/>
<polyline fill="none" stroke="gray" points="592,-1185 592,-866 "/>
<path fill="none" stroke="gray" d="M592,-866C592,-860 598,-854 604,-854"/>
<text text-anchor="middle" x="642" y="-1183.1" font-family="Times Roman,serif" font-size="11.00" fill="gray">miniMVC</text>
</g>
<!-- \\DB_SQL -->
<g id="node2" class="node"><title>\\DB_SQL</title>
<a xlink:href="sys.db.classes.db_sql.html" xlink:title="«abstract»&lt;br/&gt;DB_SQL" target="_parent">
<polygon fill="none" stroke="black" points="271,-574 187,-574 187,-538 271,-538 271,-574"/>
<text text-anchor="start" x="195" y="-561.433" font-family="Courier,monospace" font-size="11.00">«abstract»</text>
<text text-anchor="start" x="208.5" y="-548.233" font-family="Courier,monospace" font-size="11.00">DB_SQL</text>
</a>
</g>
<!-- \\DB_PDO -->
<g id="node3" class="node"><title>\\DB_PDO</title>
<a xlink:href="sys.db.classes.db_pdo.html" xlink:title="«abstract»&lt;br/&gt;DB_PDO" target="_parent">
<polygon fill="none" stroke="black" points="271,-304 187,-304 187,-268 271,-268 271,-304"/>
<text text-anchor="start" x="195" y="-291.433" font-family="Courier,monospace" font-size="11.00">«abstract»</text>
<text text-anchor="start" x="208.5" y="-278.233" font-family="Courier,monospace" font-size="11.00">DB_PDO</text>
</a>
</g>
<!-- \\PDO -->
<g id="node31" class="node"><title>\\PDO</title>
<ellipse fill="none" stroke="black" cx="36" cy="-286" rx="35.0527" ry="18"/>
<text text-anchor="middle" x="36" y="-281.4" font-family="Times Roman,serif" font-size="14.00" fill="gray">\PDO</text>
</g>
<!-- \\DB_PDO&#45;&gt;\\PDO -->
<g id="edge4" class="edge"><title>\\DB_PDO&#45;&gt;\\PDO</title>
<path fill="none" stroke="black" d="M186.167,-286C155.237,-286 113.521,-286 81.907,-286"/>
<polygon fill="none" stroke="black" points="81.603,-282.5 71.603,-286 81.603,-289.5 81.603,-282.5"/>
</g>
<!-- \\Query_Builder -->
<g id="node4" class="node"><title>\\Query_Builder</title>
<a xlink:href="sys.db.classes.query_builder.html" xlink:title="Query_Builder" target="_parent">
<polygon fill="none" stroke="black" points="509,-1006 405,-1006 405,-970 509,-970 509,-1006"/>
<text text-anchor="middle" x="457" y="-984.6" font-family="Courier,monospace" font-size="11.00">Query_Builder</text>
</a>
</g>
<!-- \\DB_Util -->
<g id="node5" class="node"><title>\\DB_Util</title>
<a xlink:href="sys.db.classes.db_util.html" xlink:title="«abstract»&lt;br/&gt;DB_Util" target="_parent">
<polygon fill="none" stroke="black" points="271,-844 187,-844 187,-808 271,-808 271,-844"/>
<text text-anchor="start" x="195" y="-831.433" font-family="Courier,monospace" font-size="11.00">«abstract»</text>
<text text-anchor="start" x="205" y="-818.233" font-family="Courier,monospace" font-size="11.00">DB_Util</text>
</a>
</g>
<!-- \\PgSQL_SQL -->
<g id="node6" class="node"><title>\\PgSQL_SQL</title>
<a xlink:href="sys.db.drivers.pgsql.pgsql_sql.html" xlink:title="PgSQL_SQL" target="_parent">
<polygon fill="none" stroke="black" points="495,-682 419,-682 419,-646 495,-646 495,-682"/>
<text text-anchor="middle" x="457" y="-660.6" font-family="Courier,monospace" font-size="11.00">PgSQL_SQL</text>
</a>
</g>
<!-- \\PgSQL_SQL&#45;&gt;\\DB_SQL -->
<g id="edge6" class="edge"><title>\\PgSQL_SQL&#45;&gt;\\DB_SQL</title>
<path fill="none" stroke="black" d="M418.355,-650.21C407.767,-646.187 396.356,-641.623 386,-637 345.852,-619.078 301.438,-595.83 270.125,-578.839"/>
<polygon fill="none" stroke="black" points="271.707,-575.715 261.252,-574.002 268.356,-581.861 271.707,-575.715"/>
</g>
<!-- \\PgSQL_Util -->
<g id="node7" class="node"><title>\\PgSQL_Util</title>
<a xlink:href="sys.db.drivers.pgsql.pgsql_util.html" xlink:title="PgSQL_Util" target="_parent">
<polygon fill="none" stroke="black" points="499,-952 415,-952 415,-916 499,-916 499,-952"/>
<text text-anchor="middle" x="457" y="-930.6" font-family="Courier,monospace" font-size="11.00">PgSQL_Util</text>
</a>
</g>
<!-- \\PgSQL_Util&#45;&gt;\\DB_Util -->
<g id="edge8" class="edge"><title>\\PgSQL_Util&#45;&gt;\\DB_Util</title>
<path fill="none" stroke="black" d="M414.631,-918.785C405.128,-915.125 395.152,-911.085 386,-907 345.852,-889.078 301.438,-865.83 270.125,-848.839"/>
<polygon fill="none" stroke="black" points="271.707,-845.715 261.252,-844.002 268.356,-851.861 271.707,-845.715"/>
</g>
<!-- \\PgSQL -->
<g id="node8" class="node"><title>\\PgSQL</title>
<a xlink:href="sys.db.drivers.pgsql.pgsql_driver.html" xlink:title="PgSQL" target="_parent">
<polygon fill="none" stroke="black" points="484,-412 430,-412 430,-376 484,-376 484,-412"/>
<text text-anchor="middle" x="457" y="-390.6" font-family="Courier,monospace" font-size="11.00">PgSQL</text>
</a>
</g>
<!-- \\PgSQL&#45;&gt;\\DB_PDO -->
<g id="edge10" class="edge"><title>\\PgSQL&#45;&gt;\\DB_PDO</title>
<path fill="none" stroke="black" d="M429.736,-384.451C416.405,-379.575 400.21,-373.343 386,-367 345.852,-349.078 301.438,-325.83 270.125,-308.839"/>
<polygon fill="none" stroke="black" points="271.707,-305.715 261.252,-304.002 268.356,-311.861 271.707,-305.715"/>
</g>
<!-- \\ODBC_Util -->
<g id="node9" class="node"><title>\\ODBC_Util</title>
<a xlink:href="sys.db.drivers.odbc.odbc_util.html" xlink:title="ODBC_Util" target="_parent">
<polygon fill="none" stroke="black" points="495,-898 419,-898 419,-862 495,-862 495,-898"/>
<text text-anchor="middle" x="457" y="-876.6" font-family="Courier,monospace" font-size="11.00">ODBC_Util</text>
</a>
</g>
<!-- \\ODBC_Util&#45;&gt;\\DB_Util -->
<g id="edge12" class="edge"><title>\\ODBC_Util&#45;&gt;\\DB_Util</title>
<path fill="none" stroke="black" d="M418.323,-870.84C380.764,-861.944 323.461,-848.372 281.735,-838.49"/>
<polygon fill="none" stroke="black" points="282.289,-835.024 271.751,-836.125 280.675,-841.836 282.289,-835.024"/>
</g>
<!-- \\ODBC_SQL -->
<g id="node10" class="node"><title>\\ODBC_SQL</title>
<a xlink:href="sys.db.drivers.odbc.odbc_sql.html" xlink:title="ODBC_SQL" target="_parent">
<polygon fill="none" stroke="black" points="492,-628 422,-628 422,-592 492,-592 492,-628"/>
<text text-anchor="middle" x="457" y="-606.6" font-family="Courier,monospace" font-size="11.00">ODBC_SQL</text>
</a>
</g>
<!-- \\ODBC_SQL&#45;&gt;\\DB_SQL -->
<g id="edge14" class="edge"><title>\\ODBC_SQL&#45;&gt;\\DB_SQL</title>
<path fill="none" stroke="black" d="M421.875,-601.681C384.327,-592.788 324.39,-578.592 281.293,-568.385"/>
<polygon fill="none" stroke="black" points="282.084,-564.976 271.547,-566.077 280.471,-571.787 282.084,-564.976"/>
</g>
<!-- \\ODBC -->
<g id="node11" class="node"><title>\\ODBC</title>
<a xlink:href="sys.db.drivers.odbc.odbc_driver.html" xlink:title="ODBC" target="_parent">
<polygon fill="none" stroke="black" points="484,-358 430,-358 430,-322 484,-322 484,-358"/>
<text text-anchor="middle" x="457" y="-336.6" font-family="Courier,monospace" font-size="11.00">ODBC</text>
</a>
</g>
<!-- \\ODBC&#45;&gt;\\DB_PDO -->
<g id="edge16" class="edge"><title>\\ODBC&#45;&gt;\\DB_PDO</title>
<path fill="none" stroke="black" d="M429.95,-333.593C393.465,-324.952 327.725,-309.382 281.392,-298.409"/>
<polygon fill="none" stroke="black" points="282.063,-294.971 271.526,-296.072 280.45,-301.782 282.063,-294.971"/>
</g>
<!-- \\MySQL_Util -->
<g id="node12" class="node"><title>\\MySQL_Util</title>
<a xlink:href="sys.db.drivers.mysql.mysql_util.html" xlink:title="MySQL_Util" target="_parent">
<polygon fill="none" stroke="black" points="499,-844 415,-844 415,-808 499,-808 499,-844"/>
<text text-anchor="middle" x="457" y="-822.6" font-family="Courier,monospace" font-size="11.00">MySQL_Util</text>
</a>
</g>
<!-- \\MySQL_Util&#45;&gt;\\DB_Util -->
<g id="edge18" class="edge"><title>\\MySQL_Util&#45;&gt;\\DB_Util</title>
<path fill="none" stroke="black" d="M414.382,-826C376.915,-826 322.234,-826 281.963,-826"/>
<polygon fill="none" stroke="black" points="281.795,-822.5 271.795,-826 281.795,-829.5 281.795,-822.5"/>
</g>
<!-- \\MySQL -->
<g id="node13" class="node"><title>\\MySQL</title>
<a xlink:href="sys.db.drivers.mysql.mysql_driver.html" xlink:title="MySQL" target="_parent">
<polygon fill="none" stroke="black" points="484,-304 430,-304 430,-268 484,-268 484,-304"/>
<text text-anchor="middle" x="457" y="-282.6" font-family="Courier,monospace" font-size="11.00">MySQL</text>
</a>
</g>
<!-- \\MySQL&#45;&gt;\\DB_PDO -->
<g id="edge20" class="edge"><title>\\MySQL&#45;&gt;\\DB_PDO</title>
<path fill="none" stroke="black" d="M429.95,-286C393.541,-286 328.001,-286 281.684,-286"/>
<polygon fill="none" stroke="black" points="281.526,-282.5 271.526,-286 281.526,-289.5 281.526,-282.5"/>
</g>
<!-- \\MySQL_SQL -->
<g id="node14" class="node"><title>\\MySQL_SQL</title>
<a xlink:href="sys.db.drivers.mysql.mysql_sql.html" xlink:title="MySQL_SQL" target="_parent">
<polygon fill="none" stroke="black" points="496,-574 418,-574 418,-538 496,-538 496,-574"/>
<text text-anchor="middle" x="457" y="-552.6" font-family="Courier,monospace" font-size="11.00">MySQL_SQL</text>
</a>
</g>
<!-- \\MySQL_SQL&#45;&gt;\\DB_SQL -->
<g id="edge22" class="edge"><title>\\MySQL_SQL&#45;&gt;\\DB_SQL</title>
<path fill="none" stroke="black" d="M417.805,-556C380.246,-556 323.289,-556 281.756,-556"/>
<polygon fill="none" stroke="black" points="281.551,-552.5 271.551,-556 281.551,-559.5 281.551,-552.5"/>
</g>
<!-- \\SQLite_Util -->
<g id="node15" class="node"><title>\\SQLite_Util</title>
<a xlink:href="sys.db.drivers.sqlite.sqlite_util.html" xlink:title="SQLite_Util" target="_parent">
<polygon fill="none" stroke="black" points="502,-790 412,-790 412,-754 502,-754 502,-790"/>
<text text-anchor="middle" x="457" y="-768.6" font-family="Courier,monospace" font-size="11.00">SQLite_Util</text>
</a>
</g>
<!-- \\SQLite_Util&#45;&gt;\\DB_Util -->
<g id="edge24" class="edge"><title>\\SQLite_Util&#45;&gt;\\DB_Util</title>
<path fill="none" stroke="black" d="M411.409,-782.798C373.991,-791.66 320.969,-804.218 281.728,-813.512"/>
<polygon fill="none" stroke="black" points="280.737,-810.15 271.813,-815.86 282.35,-816.961 280.737,-810.15"/>
</g>
<!-- \\SQLite -->
<g id="node16" class="node"><title>\\SQLite</title>
<a xlink:href="sys.db.drivers.sqlite.sqlite_driver.html" xlink:title="SQLite" target="_parent">
<polygon fill="none" stroke="black" points="485,-250 429,-250 429,-214 485,-214 485,-250"/>
<text text-anchor="middle" x="457" y="-228.6" font-family="Courier,monospace" font-size="11.00">SQLite</text>
</a>
</g>
<!-- \\SQLite&#45;&gt;\\DB_PDO -->
<g id="edge26" class="edge"><title>\\SQLite&#45;&gt;\\DB_PDO</title>
<path fill="none" stroke="black" d="M428.124,-238.839C391.361,-247.546 327.159,-262.752 281.602,-273.542"/>
<polygon fill="none" stroke="black" points="280.529,-270.199 271.605,-275.909 282.143,-277.01 280.529,-270.199"/>
</g>
<!-- \\SQLite_SQL -->
<g id="node17" class="node"><title>\\SQLite_SQL</title>
<a xlink:href="sys.db.drivers.sqlite.sqlite_sql.html" xlink:title="SQLite_SQL" target="_parent">
<polygon fill="none" stroke="black" points="499,-520 415,-520 415,-484 499,-484 499,-520"/>
<text text-anchor="middle" x="457" y="-498.6" font-family="Courier,monospace" font-size="11.00">SQLite_SQL</text>
</a>
</g>
<!-- \\SQLite_SQL&#45;&gt;\\DB_SQL -->
<g id="edge28" class="edge"><title>\\SQLite_SQL&#45;&gt;\\DB_SQL</title>
<path fill="none" stroke="black" d="M414.916,-511.967C377.314,-520.873 322.069,-533.957 281.571,-543.549"/>
<polygon fill="none" stroke="black" points="280.536,-540.197 271.612,-545.908 282.149,-547.009 280.536,-540.197"/>
</g>
<!-- \\Firebird_SQL -->
<g id="node18" class="node"><title>\\Firebird_SQL</title>
<a xlink:href="sys.db.drivers.firebird.firebird_sql.html" xlink:title="Firebird_SQL" target="_parent">
<polygon fill="none" stroke="black" points="505,-466 409,-466 409,-430 505,-430 505,-466"/>
<text text-anchor="middle" x="457" y="-444.6" font-family="Courier,monospace" font-size="11.00">Firebird_SQL</text>
</a>
</g>
<!-- \\Firebird_SQL&#45;&gt;\\DB_SQL -->
<g id="edge30" class="edge"><title>\\Firebird_SQL&#45;&gt;\\DB_SQL</title>
<path fill="none" stroke="black" d="M408.198,-465.724C400.706,-468.685 393.105,-471.828 386,-475 345.852,-492.922 301.438,-516.17 270.125,-533.161"/>
<polygon fill="none" stroke="black" points="268.356,-530.139 261.252,-537.998 271.707,-536.285 268.356,-530.139"/>
</g>
<!-- \\Firebird_Result -->
<g id="node19" class="node"><title>\\Firebird_Result</title>
<a xlink:href="sys.db.drivers.firebird.firebird_result.html" xlink:title="Firebird_Result" target="_parent">
<polygon fill="none" stroke="black" points="515,-142 399,-142 399,-106 515,-106 515,-142"/>
<text text-anchor="middle" x="457" y="-120.6" font-family="Courier,monospace" font-size="11.00">Firebird_Result</text>
</a>
</g>
<!-- \\PDOStatement -->
<g id="node46" class="node"><title>\\PDOStatement</title>
<ellipse fill="none" stroke="black" cx="229" cy="-18" rx="85.1942" ry="18"/>
<text text-anchor="middle" x="229" y="-13.4" font-family="Times Roman,serif" font-size="14.00" fill="gray">\PDOStatement</text>
</g>
<!-- \\Firebird_Result&#45;&gt;\\PDOStatement -->
<g id="edge32" class="edge"><title>\\Firebird_Result&#45;&gt;\\PDOStatement</title>
<path fill="none" stroke="black" d="M403.829,-105.848C397.688,-103.15 391.619,-100.191 386,-97 350.51,-76.8439 350.545,-58.1724 314,-40 309.624,-37.8239 305.011,-35.8478 300.288,-34.0557"/>
<polygon fill="none" stroke="black" points="301.077,-30.6241 290.483,-30.6306 298.769,-37.2326 301.077,-30.6241"/>
</g>
<!-- \\Firebird -->
<g id="node20" class="node"><title>\\Firebird</title>
<a xlink:href="sys.db.drivers.firebird.firebird_driver.html" xlink:title="Firebird" target="_parent">
<polygon fill="none" stroke="black" points="492,-196 422,-196 422,-160 492,-160 492,-196"/>
<text text-anchor="middle" x="457" y="-174.6" font-family="Courier,monospace" font-size="11.00">Firebird</text>
</a>
</g>
<!-- \\Firebird&#45;&gt;\\DB_PDO -->
<g id="edge34" class="edge"><title>\\Firebird&#45;&gt;\\DB_PDO</title>
<path fill="none" stroke="black" d="M421.666,-188.889C409.944,-193.16 397.07,-198.589 386,-205 350.199,-225.734 350.888,-245.268 314,-264 304.01,-269.073 292.75,-273.046 281.773,-276.133"/>
<polygon fill="none" stroke="black" points="280.611,-272.819 271.815,-278.725 282.375,-279.593 280.611,-272.819"/>
</g>
<!-- \\Firebird_Util -->
<g id="node21" class="node"><title>\\Firebird_Util</title>
<a xlink:href="sys.db.drivers.firebird.firebird_util.html" xlink:title="Firebird_Util" target="_parent">
<polygon fill="none" stroke="black" points="509,-736 405,-736 405,-700 509,-700 509,-736"/>
<text text-anchor="middle" x="457" y="-714.6" font-family="Courier,monospace" font-size="11.00">Firebird_Util</text>
</a>
</g>
<!-- \\Firebird_Util&#45;&gt;\\DB_Util -->
<g id="edge36" class="edge"><title>\\Firebird_Util&#45;&gt;\\DB_Util</title>
<path fill="none" stroke="black" d="M407.435,-736.026C400.191,-738.898 392.864,-741.936 386,-745 345.852,-762.922 301.438,-786.17 270.125,-803.161"/>
<polygon fill="none" stroke="black" points="268.356,-800.139 261.252,-807.998 271.707,-806.285 268.356,-800.139"/>
</g>
<!-- \\Bcrypt -->
<g id="node22" class="node"><title>\\Bcrypt</title>
<a xlink:href="sys.libraries.Bcrypt.html" xlink:title="Bcrypt" target="_parent">
<polygon fill="none" stroke="black" points="485,-88 429,-88 429,-52 485,-52 485,-88"/>
<text text-anchor="middle" x="457" y="-66.6" font-family="Courier,monospace" font-size="11.00">Bcrypt</text>
</a>
</g>
<!-- \\miniMVC\\Page -->
<g id="node24" class="node"><title>\\miniMVC\\Page</title>
<a xlink:href="sys.core.Page.html" xlink:title="Page" target="_parent">
<polygon fill="none" stroke="black" points="669,-1168 615,-1168 615,-1132 669,-1132 669,-1168"/>
<text text-anchor="middle" x="642" y="-1146.6" font-family="Courier,monospace" font-size="11.00">Page</text>
</a>
</g>
<!-- \\miniMVC\\Model -->
<g id="node25" class="node"><title>\\miniMVC\\Model</title>
<a xlink:href="sys.core.Model.html" xlink:title="Model" target="_parent">
<polygon fill="none" stroke="black" points="669,-1114 615,-1114 615,-1078 669,-1078 669,-1114"/>
<text text-anchor="middle" x="642" y="-1092.6" font-family="Courier,monospace" font-size="11.00">Model</text>
</a>
</g>
<!-- \\ArrayObject -->
<g id="node50" class="node"><title>\\ArrayObject</title>
<ellipse fill="none" stroke="black" cx="457" cy="-1096" rx="71.107" ry="18"/>
<text text-anchor="middle" x="457" y="-1091.4" font-family="Times Roman,serif" font-size="14.00" fill="gray">\ArrayObject</text>
</g>
<!-- \\miniMVC\\Model&#45;&gt;\\ArrayObject -->
<g id="edge38" class="edge"><title>\\miniMVC\\Model&#45;&gt;\\ArrayObject</title>
<path fill="none" stroke="black" d="M614.703,-1096C594.472,-1096 565.775,-1096 538.395,-1096"/>
<polygon fill="none" stroke="black" points="538.385,-1092.5 528.385,-1096 538.385,-1099.5 538.385,-1092.5"/>
</g>
<!-- \\miniMVC\\Controller -->
<g id="node26" class="node"><title>\\miniMVC\\Controller</title>
<a xlink:href="sys.core.Controller.html" xlink:title="Controller" target="_parent">
<polygon fill="none" stroke="black" points="684,-1060 600,-1060 600,-1024 684,-1024 684,-1060"/>
<text text-anchor="middle" x="642" y="-1038.6" font-family="Courier,monospace" font-size="11.00">Controller</text>
</a>
</g>
<!-- \\miniMVC\\DB -->
<g id="node27" class="node"><title>\\miniMVC\\DB</title>
<a xlink:href="sys.core.db.html" xlink:title="DB" target="_parent">
<polygon fill="none" stroke="black" points="669,-1006 615,-1006 615,-970 669,-970 669,-1006"/>
<text text-anchor="middle" x="642" y="-984.6" font-family="Courier,monospace" font-size="11.00">DB</text>
</a>
</g>
<!-- \\miniMVC\\DB&#45;&gt;\\Query_Builder -->
<g id="edge40" class="edge"><title>\\miniMVC\\DB&#45;&gt;\\Query_Builder</title>
<path fill="none" stroke="black" d="M614.703,-988C589.762,-988 551.953,-988 519.608,-988"/>
<polygon fill="none" stroke="black" points="519.322,-984.5 509.322,-988 519.322,-991.5 519.322,-984.5"/>
</g>
<!-- \\miniMVC\\Session -->
<g id="node28" class="node"><title>\\miniMVC\\Session</title>
<a xlink:href="sys.libraries.Session.html" xlink:title="Session" target="_parent">
<polygon fill="none" stroke="black" points="674,-952 610,-952 610,-916 674,-916 674,-952"/>
<text text-anchor="middle" x="642" y="-930.6" font-family="Courier,monospace" font-size="11.00">Session</text>
</a>
</g>
<!-- \\miniMVC\\Data_Store -->
<g id="node29" class="node"><title>\\miniMVC\\Data_Store</title>
<a xlink:href="sys.libraries.Data_Store.html" xlink:title="Data_Store" target="_parent">
<polygon fill="none" stroke="black" points="684,-898 600,-898 600,-862 684,-862 684,-898"/>
<text text-anchor="middle" x="642" y="-876.6" font-family="Courier,monospace" font-size="11.00">Data_Store</text>
</a>
</g>
</g>
</svg>
